PathFileType	4	(X/Y/Z)	D:\Temporary Files\修改scale文件\BD0001.trc
DataRate	CameraRate	NumFrames	NumMarkers	Units	OrigDataRate	OrigDataStartFrame	OrigNumFrames
200.000000	200.000000	6	38	mm	200.000000	301	804
Frame#	Time	Top.Head			L.Acromium			R.Acromium			Sternum			L.ASIS			R.ASIS			V.Sacral			R.Knee.Lat			R.Knee.Med			L.Knee.Lat			L.Knee.Med			L.Ankle.Lat			L.Toe.Tip			R.Heel			R.Ankle.Med			R.Ankle.Lat			L.Toe.Med			L.Toe.Lat			L.Heel			L.Ankle.Med			L.Shank1			L.Shank2			R.Toe.Tip			R.Toe.Med			R.Toe.Lat			L.PSIS			R.PSIS			R.iliac.crest			L.iliac.crest			L.Shank3			L.Shank4			R.Shank4			L.Thigh4			R.Thigh4			R.Heel.Lat			R.Heel.Med			L.Heel.Lat			L.Heel.Med			
		X1	Y1	Z1	X2	Y2	Z2	X3	Y3	Z3	X4	Y4	Z4	X5	Y5	Z5	X6	Y6	Z6	X7	Y7	Z7	X8	Y8	Z8	X9	Y9	Z9	X10	Y10	Z10	X11	Y11	Z11	X12	Y12	Z12	X13	Y13	Z13	X14	Y14	Z14	X15	Y15	Z15	X16	Y16	Z16	X17	Y17	Z17	X18	Y18	Z18	X19	Y19	Z19	X20	Y20	Z20	X21	Y21	Z21	X22	Y22	Z22	X23	Y23	Z23	X24	Y24	Z24	X25	Y25	Z25	X26	Y26	Z26	X27	Y27	Z27	X28	Y28	Z28	X29	Y29	Z29	X30	Y30	Z30	X31	Y31	Z31	X32	Y32	Z32	X33	Y33	Z33	X34	Y34	Z34	X35	Y35	Z35	X36	Y36	Z36	X37	Y37	Z37	X38	Y38	Z38	
302	1.505	923.716911407424	1692.91401190329	-991.73405036794	931.901277694363	1409.80103956498	-817.280548942676	1091.06962247366	1399.86672911167	-1089.53517677439	899.205625668129	1359.12326650313	-1019.03098394522	803.288346121164	911.769813473949	-932.923931351777	926.425179406255	931.581595730743	-1134.70225106796	1007.67071806786	964.313729793184	-953.678004304224	1002.92641804759	475.024408118964	-1165.99364135685	947.962670791054	454.701845446467	-1065.88557825241	848.480442859087	476.185132308953	-847.821660566271	885.384906778521	456.75035521466	-950.515496032178	906.939732587578	102.806966495465	-808.743476272155	726.899926386368	56.3517080886236	-869.041943821783	1104.89413624959	34.3771653875692	-1104.20926190939	990.173457083874	103.241361559526	-1115.30746234562	1060.67428271206	104.899616608386	-1173.97788747733	786.867741273323	45.2646507139558	-907.893946948016	793.44414892308	46.3538285320132	-802.809927760846	1001.35116746353	31.4996496261828	-814.597679257276	927.047735554552	104.54877491455	-894.668209288946	831.35547721719	388.179533216014	-836.620771555366	828.88145607077	307.515278760242	-819.656506052075	876.078448536899	54.4400908264911	-1277.16959620733	899.983016457225	44.5330529013883	-1205.41517696828	986.477184153121	37.4538686942513	-1275.04207107026	974.186410902614	963.032878177896	-911.05925431432	1028.91552914525	964.811448412406	-999.749221933144	969.330872256061	988.902643203596	-1123.28713128456	833.328207118726	989.162104551795	-900.867942561838	882.886704823648	395.950900764778	-801.721936570244	884.911821461294	309.863726567383	-785.240083352653	1061.97737530173	317.409576238034	-1187.57495694089	837.079479938958	603.870628018822	-833.65941673286	1030.55146275621	568.273844908674	-1149.51723420436	1098.26214599136	32.1947529833556	-1172.68589434887	1024.78087693422	25.2983258045999	-1101.01517358377	935.319395298486	22.3289012103877	-780.09647274596	956.478339439495	27.320146119672	-883.618509871206
303	1.51	923.723485426324	1692.91278686446	-991.752094548231	931.92611533405	1409.80100206113	-817.283594595492	1091.08749995486	1399.86526027631	-1089.54557276429	899.226924254638	1359.11888785282	-1019.03474233781	803.299538460676	911.772643432756	-932.914663626746	926.443262801729	931.580094484983	-1134.69664877108	1007.68540966647	964.313603176377	-953.668691919424	1002.93257038705	475.023063920042	-1165.98904153442	947.968318895859	454.705344105852	-1065.87607035725	848.486889519682	476.191186190314	-847.816424580079	885.398621331617	456.756467064761	-950.506560210317	906.94040761849	102.806698214805	-808.744302486315	726.902347978348	56.349174517575	-869.040398440372	1104.89548539797	34.370897530255	-1104.20752847421	990.168867742016	103.243570202258	-1115.30609361039	1060.66041784579	104.910588991269	-1173.98613991635	786.867917998503	45.2629085829961	-907.892963388699	793.444186308914	46.3551664448471	-802.8113208557	1001.35290187197	31.4962747495441	-814.594137109249	927.046548294696	104.54918578544	-894.671142901007	831.409953430641	388.184718815365	-836.55765874276	828.891547010105	307.517263105484	-819.650583055154	876.070311260112	54.399311586056	-1277.15479821967	899.986037404838	44.5281448828222	-1205.41671265169	986.474390917289	37.4537882064108	-1275.04114523503	974.20066889	963.032815748928	-911.051128296671	1028.92680507365	964.810615382713	-999.739922945211	969.349512028827	988.895697523472	-1123.27878664753	833.345656499165	989.167412449951	-900.86149794485	882.899606899174	395.95119669778	-801.713968536524	884.919693054225	309.858973712632	-785.233048288466	1061.98200308724	317.403629224056	-1187.57009960524	837.067630074406	603.896458993762	-833.65533598075	1030.55974035489	568.271907873431	-1149.51813735346	1098.26286775613	32.1934674572595	-1172.68551767194	1024.78289656613	25.2969430588915	-1101.01296834035	935.318078095888	22.3241952144111	-780.093712135705	956.479004641719	27.3132025617507	-883.617265627259
304	1.515	923.730565981915	1692.91066204729	-991.769629787043	931.950915084571	1409.80344709451	-817.286127130926	1091.10527515501	1399.86455832446	-1089.55760474727	899.248305565487	1359.11456658692	-1019.03947068291	803.310774693754	911.775098805673	-932.906773638	926.461552467701	931.579361277837	-1134.69093081406	1007.70198283034	964.315106224763	-953.659012192003	1002.93984195422	475.024652159471	-1165.98462589137	947.976193708254	454.708615457715	-1065.86592857471	848.489824323619	476.196670973513	-847.81726369717	885.413784140579	456.759605239209	-950.495917396362	906.941619441507	102.807461005838	-808.745623793274	726.903957683691	56.3482997518702	-869.040976626589	1104.89798617558	34.3668545797362	-1104.20538224691	990.164813351391	103.246982480533	-1115.3044367095	1060.6496656192	104.926472074383	-1173.99091796025	786.868082469885	45.2592300801359	-907.891582527048	793.445291030563	46.356676284837	-802.813377876081	1001.35589799731	31.4954844704052	-814.59112218656	927.04540700354	104.552861196099	-894.672112546584	831.442379729695	388.191758594519	-836.529789051147	828.901557883488	307.519430101758	-819.64548791641	876.061851682232	54.3882353888945	-1277.15420331862	899.988543521251	44.5232255689142	-1205.41813217682	986.471769866985	37.4551627633544	-1275.0402156246	974.212828910799	963.0311244287	-911.043590152938	1028.93821664665	964.810563740677	-999.729547475403	969.368414313278	988.890214463849	-1123.27040603395	833.360683791074	989.173698869593	-900.855176755045	882.912323819995	395.952089017591	-801.705921017834	884.926932156465	309.856794402244	-785.225193842041	1061.98827996285	317.395856269837	-1187.56270125507	837.040703229584	603.944477557076	-833.641617826456	1030.56974587318	568.272989015344	-1149.52003891486	1098.26515754876	32.1940082544984	-1172.68623219837	1024.78558004804	25.2964474296072	-1101.01084398015	935.318013406237	22.3218799230135	-780.090879201877	956.480221342375	27.3072141676596	-883.615716936828
305	1.52	923.738270145215	1692.90773695171	-991.786555928105	931.975535484453	1409.80837735688	-817.288823781376	1091.12240390458	1399.86428089501	-1089.57105491226	899.269996064622	1359.11045225602	-1019.04394720897	803.322497562124	911.777062212912	-932.900202011715	926.479264473232	931.579033310045	-1134.68455794731	1007.71937144513	964.317085664841	-953.649090068176	1002.94825355744	475.028136126433	-1165.98022505777	947.985878331115	454.711255171066	-1065.85670619274	848.492753054637	476.201470537507	-847.819702393521	885.430144700954	456.759524313749	-950.484091565689	906.942749400682	102.807913457528	-808.7465814427	726.904409595164	56.3492816368663	-869.044934310713	1104.90131406915	34.365183153344	-1104.20374384783	990.162692046337	103.250797508539	-1115.30254794353	1060.64340532169	104.943495621232	-1173.99137710873	786.868191944437	45.253563233255	-907.890256842956	793.44745024553	46.3579911807059	-802.815869597285	1001.3597218596	31.4962047279032	-814.589405896852	927.045667336011	104.558855217694	-894.671217595203	831.458548857976	388.199038828515	-836.526182577713	828.911380332488	307.52131556354	-819.640430305839	876.053059993942	54.3973572816534	-1277.16329732368	899.990492768168	44.5180966364476	-1205.41907828405	986.470120506061	37.4572642995189	-1275.03949739078	974.22317879255	963.028837981573	-911.036541500871	1028.95019742762	964.810542341951	-999.718516037756	969.386747226027	988.886657417227	-1123.26267981565	833.373255417572	989.180912611537	-900.84812889392	882.925154833879	395.953168425803	-801.698266836699	884.934062110383	309.857738794978	-785.216869580437	1061.9966954492	317.386966039612	-1187.55381520163	836.993966663863	604.019718143431	-833.614654186741	1030.58150009791	568.277236691876	-1149.52130402699	1098.26841716257	32.1963124755575	-1172.68778074995	1024.78813322395	25.2970924024717	-1101.0089494791	935.318673948428	22.3224742230571	-780.089080310615	956.481775133288	27.3029192380872	-883.614330374671
306	1.525	923.746368436501	1692.90473003364	-991.803109328586	932.000035092691	1409.81499307164	-817.292324279012	1091.13836890133	1399.86383429563	-1089.58527696189	899.292004798038	1359.10660042843	-1019.04698040956	803.334808550924	911.778611397754	-932.894568189189	926.49609165162	931.578790151897	-1134.67713838678	1007.736253526	964.318149888288	-953.639138881137	1002.95803181622	475.032010527177	-1165.97536264307	947.996370681437	454.713285312923	-1065.84968255293	848.496751518409	476.205405839229	-847.821770941575	885.447418169941	456.756728664599	-950.472413548563	906.943455205357	102.80712401102	-808.746294037123	726.903507167456	56.3523141017081	-869.053071333076	1104.90467475962	34.3657114508741	-1104.20334134696	990.163110050941	103.253484514435	-1115.30092271929	1060.63999409564	104.957017874745	-1173.98978271748	786.868056245428	45.2465995596793	-907.889956347099	793.450120107135	46.3589762072092	-802.818777686886	1001.36388752618	31.4973707400485	-814.589701673469	927.048165551053	104.565419759616	-894.669008262488	831.462821090626	388.204483537946	-836.537593356376	828.920817334657	307.522739156734	-819.634975058182	876.043843944266	54.4176072148614	-1277.17799181158	899.992195534967	44.5130755816569	-1205.41896660722	986.469621259904	37.458967751136	-1275.03895906539	974.232223824316	963.027402080806	-911.030205086789	1028.96322774287	964.809915049879	-999.707617495461	969.403902483901	988.884703005129	-1123.25549747104	833.384499455581	989.188577134249	-900.839772925902	882.938381495833	395.954037844348	-801.691348495508	884.941544197111	309.861154217402	-785.209254995674	1062.00731810055	317.378276349721	-1187.54504412258	836.934009047364	604.112690018783	-833.578214411954	1030.59462421729	568.283326074378	-1149.52000257435	1098.27180963641	32.1991533558106	-1172.69023363909	1024.7895360838	25.2985544774537	-1101.00773788725	935.319834911271	22.3251090870059	-780.088697325336	956.483267619676	27.3007329984698	-883.613825576026
307	1.53	923.754474752362	1692.90247760889	-991.820028600564	932.024511791932	1409.82218180508	-817.29763522865	1091.15291350888	1399.86272064827	-1089.59934825691	899.31395707143	1359.10284407675	-1019.04811218424	803.347635294502	911.779955137914	-932.889692400112	926.512199157985	931.578382188212	-1134.66838624054	1007.75199297687	964.317496680547	-953.629835736508	1002.96964721422	475.034841710225	-1165.96926882921	948.007187237998	454.714773174798	-1065.84489367495	848.501501384246	476.208446888886	-847.823289425557	885.464606703152	456.751979266895	-950.462407918297	906.944293657947	102.805314838756	-808.744033911041	726.901047968356	56.3572620244043	-869.065492805696	1104.9071219901	34.3678903866106	-1104.20423059626	990.16582324279	103.25392553541	-1115.30032309105	1060.63485114646	104.961426595273	-1173.98966650906	786.867075883807	45.2396522293771	-907.891694474424	793.452562843951	46.3595457285488	-802.822059017246	1001.36786356617	31.4992566194223	-814.591899538255	927.052570397778	104.571120625634	-894.666057625745	831.457891544686	388.207067720655	-836.557677120915	828.929826633566	307.52391161896	-819.628962611828	876.034448363937	54.4415951144097	-1277.19519051173	899.994049193741	44.5088998050274	-1205.41723165563	986.469733257375	37.4594772077419	-1275.03844289368	974.240558300319	963.027676921211	-911.0247022566	1028.97739940895	964.80842497104	-999.697777535364	969.419834564773	988.883553127634	-1123.24826822764	833.395808828372	989.196042789197	-900.83028470378	882.951687027006	395.954158426768	-801.685011223457	884.949148186225	309.865570900837	-785.203392681532	1062.01948697366	317.371433799006	-1187.53743673831	836.879945180469	604.197865057911	-833.544515933998	1030.60825686844	568.28928445672	-1149.51473639214	1098.27480725491	32.2009415719727	-1172.69347773204	1024.7891464038	25.3000033707937	-1101.0076272202	935.321517179881	22.3274192882166	-780.089383323307	956.484063979239	27.3006120614307	-883.614680251051
